<?xml version="1.0" standalone="no"?>
 <!DOCTYPE svg PUBLIC "-//W3C//DTD SVG 1.1//EN" 
 "http://www.w3.org/Graphics/SVG/1.1/DTD/svg11.dtd"> 
<svg xmlns="http://www.w3.org/2000/svg" version="1.1" 
    width="4.5339cm" height="4.23926cm" viewBox="0 0 17850 16690 ">
<title>SVG Picture created as AS7265x_1.svg date 2019/07/31 09:52:45 </title>
  <desc>Picture generated by Eeschema-SVG </desc>
<g style="fill:#000000; fill-opacity:1;stroke:#000000; stroke-opacity:1;
stroke-linecap:round; stroke-linejoin:round; "
 transform="translate(0 0) scale(1 1)">
</g>
<g style="fill:#840000; fill-opacity:0.0; 
stroke:#840000; stroke-width:-10; stroke-opacity:1; 
stroke-linecap:round; stroke-linejoin:round;">
</g>
<g style="fill:#FFFFC2; fill-opacity:0.0; 
stroke:#FFFFC2; stroke-width:-10; stroke-opacity:1; 
stroke-linecap:round; stroke-linejoin:round;">
</g>
<g style="fill:#FFFFC2; fill-opacity:0.6; 
stroke:#FFFFC2; stroke-width:0; stroke-opacity:1; 
stroke-linecap:round; stroke-linejoin:round;">
<rect x="2420" y="2340" width="12500" height="13000" rx="0" />
</g>
<g style="fill:#840000; fill-opacity:0.6; 
stroke:#840000; stroke-width:0; stroke-opacity:1; 
stroke-linecap:round; stroke-linejoin:round;">
</g>
<g style="fill:#840000; fill-opacity:0.0; 
stroke:#840000; stroke-width:100; stroke-opacity:1; 
stroke-linecap:round; stroke-linejoin:round;">
<rect x="2420" y="2340" width="12500" height="13000" rx="0" />
</g>
<g style="fill:#840000; fill-opacity:0.0; 
stroke:#840000; stroke-width:60; stroke-opacity:1; 
stroke-linecap:round; stroke-linejoin:round;">
<path d="M7090 8460
L7370 8460
" />
<path d="M7030 8630
L7230 8040
L7430 8630
" />
<path d="M7590 8600
L7680 8630
L7820 8630
L7880 8600
L7900 8580
L7930 8520
L7930 8460
L7900 8410
L7880 8380
L7820 8350
L7710 8320
L7650 8290
L7620 8270
L7590 8210
L7590 8150
L7620 8100
L7650 8070
L7710 8040
L7850 8040
L7930 8070
" />
<path d="M8130 8040
L8520 8040
L8270 8630
" />
<path d="M8720 8100
L8750 8070
L8800 8040
L8940 8040
L9000 8070
L9030 8100
L9060 8150
L9060 8210
L9030 8290
L8690 8630
L9060 8630
" />
<path d="M9560 8040
L9450 8040
L9390 8070
L9360 8100
L9310 8180
L9280 8290
L9280 8520
L9310 8580
L9340 8600
L9390 8630
L9510 8630
L9560 8600
L9590 8580
L9620 8520
L9620 8380
L9590 8320
L9560 8290
L9510 8270
L9390 8270
L9340 8290
L9310 8320
L9280 8380
" />
<path d="M10150 8040
L9870 8040
L9840 8320
L9870 8290
L9930 8270
L10070 8270
L10120 8290
L10150 8320
L10180 8380
L10180 8520
L10150 8580
L10120 8600
L10070 8630
L9930 8630
L9870 8600
L9840 8580
" />
<path d="M10400 8100
L10430 8070
L10490 8040
L10630 8040
L10690 8070
L10710 8100
L10740 8150
L10740 8210
L10710 8290
L10380 8630
L10740 8630
" />
<path d="M14920 11840
L15920 11840
" />
<path d="M15770 11690
L16070 11990
" />
<path d="M16070 11690
L15770 11990
" />
</g>
<g style="fill:#008484; fill-opacity:0.0; 
stroke:#008484; stroke-width:60; stroke-opacity:1; 
stroke-linecap:round; stroke-linejoin:round;">
<path d="M11090 11420
L11570 11420
" />
<path d="M11190 12040
L11260 12060
L11380 12060
L11420 12040
L11450 12010
L11470 11970
L11470 11920
L11450 11870
L11420 11850
L11380 11820
L11280 11800
L11230 11780
L11210 11750
L11190 11700
L11190 11660
L11210 11610
L11230 11590
L11280 11560
L11400 11560
L11470 11590
" />
<path d="M11570 11420
L11970 11420
" />
<path d="M11920 12060
L11690 12060
L11690 11560
" />
<path d="M11970 11420
L12400 11420
" />
<path d="M12020 11560
L12190 12060
L12350 11560
" />
<path d="M12400 11420
L12880 11420
" />
<path d="M12780 12060
L12490 12060
" />
<path d="M12640 12060
L12640 11560
L12590 11630
L12540 11680
L12490 11700
" />
<path d="M12880 11420
L13260 11420
" />
<path d="M12880 12110
L13260 12110
" />
<path d="M13260 11420
L13760 11420
" />
<path d="M13660 12060
L13490 11820
" />
<path d="M13380 12060
L13380 11560
L13570 11560
L13610 11590
L13640 11610
L13660 11660
L13660 11730
L13640 11780
L13610 11800
L13570 11820
L13380 11820
" />
<path d="M13760 11420
L14210 11420
" />
<path d="M13880 11800
L14040 11800
" />
<path d="M14110 12060
L13880 12060
L13880 11560
L14110 11560
" />
<path d="M14210 11420
L14680 11420
" />
<path d="M14300 12040
L14380 12060
L14490 12060
L14540 12040
L14570 12010
L14590 11970
L14590 11920
L14570 11870
L14540 11850
L14490 11820
L14400 11800
L14350 11780
L14330 11750
L14300 11700
L14300 11660
L14330 11610
L14350 11590
L14400 11560
L14520 11560
L14590 11590
" />
</g>
<g style="fill:#840000; fill-opacity:0.0; 
stroke:#840000; stroke-width:60; stroke-opacity:1; 
stroke-linecap:round; stroke-linejoin:round;">
<path d="M15560 11710
L15270 11710
" />
<path d="M15420 11710
L15420 11210
L15370 11280
L15320 11330
L15270 11350
" />
<path d="M14920 13840
L15920 13840
" />
</g>
<g style="fill:#008484; fill-opacity:0.0; 
stroke:#008484; stroke-width:60; stroke-opacity:1; 
stroke-linecap:round; stroke-linejoin:round;">
<path d="M12520 14040
L12590 14060
L12710 14060
L12760 14040
L12780 14010
L12800 13970
L12800 13920
L12780 13870
L12760 13850
L12710 13820
L12610 13800
L12570 13780
L12540 13750
L12520 13700
L12520 13660
L12540 13610
L12570 13590
L12610 13560
L12730 13560
L12800 13590
" />
<path d="M13020 14060
L13020 13560
L13140 13560
L13210 13590
L13260 13630
L13280 13680
L13300 13780
L13300 13850
L13280 13940
L13260 13990
L13210 14040
L13140 14060
L13020 14060
" />
<path d="M13490 13920
L13730 13920
" />
<path d="M13450 14060
L13610 13560
L13780 14060
" />
<path d="M13830 14110
L14210 14110
" />
<path d="M14300 14040
L14380 14060
L14490 14060
L14540 14040
L14570 14010
L14590 13970
L14590 13920
L14570 13870
L14540 13850
L14490 13820
L14400 13800
L14350 13780
L14330 13750
L14300 13700
L14300 13660
L14330 13610
L14350 13590
L14400 13560
L14520 13560
L14590 13590
" />
</g>
<g style="fill:#840000; fill-opacity:0.0; 
stroke:#840000; stroke-width:60; stroke-opacity:1; 
stroke-linecap:round; stroke-linejoin:round;">
<path d="M15320 13710
L15030 13710
" />
<path d="M15180 13710
L15180 13210
L15130 13280
L15080 13330
L15030 13350
" />
<path d="M15630 13210
L15680 13210
L15720 13240
L15750 13260
L15770 13310
L15800 13400
L15800 13520
L15770 13620
L15750 13660
L15720 13690
L15680 13710
L15630 13710
L15580 13690
L15560 13660
L15530 13620
L15510 13520
L15510 13400
L15530 13310
L15560 13260
L15580 13240
L15630 13210
" />
<path d="M2420 12840
L1420 12840
" />
<path d="M1270 12690
L1570 12990
" />
<path d="M1570 12690
L1270 12990
" />
</g>
<g style="fill:#008484; fill-opacity:0.0; 
stroke:#008484; stroke-width:60; stroke-opacity:1; 
stroke-linecap:round; stroke-linejoin:round;">
<path d="M3050 13060
L2880 12820
" />
<path d="M2760 13060
L2760 12560
L2950 12560
L3000 12590
L3030 12610
L3050 12660
L3050 12730
L3030 12780
L3000 12800
L2950 12820
L2760 12820
" />
<path d="M3220 12560
L3550 13060
" />
<path d="M3550 12560
L3220 13060
" />
<path d="M4100 12540
L3670 13180
" />
<path d="M4240 13040
L4310 13060
L4430 13060
L4480 13040
L4500 13010
L4530 12970
L4530 12920
L4500 12870
L4480 12850
L4430 12820
L4340 12800
L4290 12780
L4260 12750
L4240 12700
L4240 12660
L4260 12610
L4290 12590
L4340 12560
L4450 12560
L4530 12590
" />
<path d="M5030 13010
L5000 13040
L4930 13060
L4880 13060
L4810 13040
L4760 12990
L4740 12940
L4720 12850
L4720 12780
L4740 12680
L4760 12630
L4810 12590
L4880 12560
L4930 12560
L5000 12590
L5030 12610
" />
<path d="M5480 13060
L5240 13060
L5240 12560
" />
<path d="M5530 13110
L5910 13110
" />
<path d="M6000 13040
L6070 13060
L6190 13060
L6240 13040
L6260 13010
L6290 12970
L6290 12920
L6260 12870
L6240 12850
L6190 12820
L6100 12800
L6050 12780
L6030 12750
L6000 12700
L6000 12660
L6030 12610
L6050 12590
L6100 12560
L6220 12560
L6290 12590
" />
</g>
<g style="fill:#840000; fill-opacity:0.0; 
stroke:#840000; stroke-width:60; stroke-opacity:1; 
stroke-linecap:round; stroke-linejoin:round;">
<path d="M1820 12710
L1530 12710
" />
<path d="M1680 12710
L1680 12210
L1630 12280
L1580 12330
L1530 12350
" />
<path d="M2300 12710
L2010 12710
" />
<path d="M2150 12710
L2150 12210
L2110 12280
L2060 12330
L2010 12350
" />
<path d="M2420 13840
L1420 13840
" />
<path d="M1270 13690
L1570 13990
" />
<path d="M1570 13690
L1270 13990
" />
</g>
<g style="fill:#008484; fill-opacity:0.0; 
stroke:#008484; stroke-width:60; stroke-opacity:1; 
stroke-linecap:round; stroke-linejoin:round;">
<path d="M2690 13560
L2980 13560
" />
<path d="M2840 14060
L2840 13560
" />
<path d="M3100 13560
L3430 14060
" />
<path d="M3430 13560
L3100 14060
" />
<path d="M3980 13540
L3550 14180
" />
<path d="M4120 14040
L4190 14060
L4310 14060
L4360 14040
L4380 14010
L4410 13970
L4410 13920
L4380 13870
L4360 13850
L4310 13820
L4220 13800
L4170 13780
L4150 13750
L4120 13700
L4120 13660
L4150 13610
L4170 13590
L4220 13560
L4340 13560
L4410 13590
" />
<path d="M4620 14060
L4620 13560
L4740 13560
L4810 13590
L4860 13630
L4880 13680
L4910 13780
L4910 13850
L4880 13940
L4860 13990
L4810 14040
L4740 14060
L4620 14060
" />
<path d="M5100 13920
L5340 13920
" />
<path d="M5050 14060
L5220 13560
L5380 14060
" />
<path d="M5430 14110
L5810 14110
" />
<path d="M5910 14040
L5980 14060
L6100 14060
L6150 14040
L6170 14010
L6190 13970
L6190 13920
L6170 13870
L6150 13850
L6100 13820
L6000 13800
L5950 13780
L5930 13750
L5910 13700
L5910 13660
L5930 13610
L5950 13590
L6000 13560
L6120 13560
L6190 13590
" />
</g>
<g style="fill:#840000; fill-opacity:0.0; 
stroke:#840000; stroke-width:60; stroke-opacity:1; 
stroke-linecap:round; stroke-linejoin:round;">
<path d="M1820 13710
L1530 13710
" />
<path d="M1680 13710
L1680 13210
L1630 13280
L1580 13330
L1530 13350
" />
<path d="M2010 13260
L2030 13240
L2080 13210
L2200 13210
L2250 13240
L2270 13260
L2300 13310
L2300 13350
L2270 13430
L1990 13710
L2300 13710
" />
<path d="M2420 14840
L1420 14840
" />
</g>
<g style="fill:#008484; fill-opacity:0.0; 
stroke:#008484; stroke-width:60; stroke-opacity:1; 
stroke-linecap:round; stroke-linejoin:round;">
<path d="M2760 15060
L2760 14560
" />
<path d="M3000 15060
L3000 14560
L3290 15060
L3290 14560
" />
<path d="M3450 14560
L3740 14560
" />
<path d="M3600 15060
L3600 14560
" />
</g>
<g style="fill:#840000; fill-opacity:0.0; 
stroke:#840000; stroke-width:60; stroke-opacity:1; 
stroke-linecap:round; stroke-linejoin:round;">
<path d="M1820 14710
L1530 14710
" />
<path d="M1680 14710
L1680 14210
L1630 14280
L1580 14330
L1530 14350
" />
<path d="M1990 14210
L2300 14210
L2130 14400
L2200 14400
L2250 14430
L2270 14450
L2300 14500
L2300 14620
L2270 14660
L2250 14690
L2200 14710
L2060 14710
L2010 14690
L1990 14660
" />
<path d="M2420 3840
L1420 3840
" />
</g>
<g style="fill:#008484; fill-opacity:0.0; 
stroke:#008484; stroke-width:60; stroke-opacity:1; 
stroke-linecap:round; stroke-linejoin:round;">
<path d="M2690 3560
L2860 4060
L3030 3560
" />
<path d="M3190 4060
L3190 3560
L3310 3560
L3380 3590
L3430 3630
L3450 3680
L3480 3780
L3480 3850
L3450 3940
L3430 3990
L3380 4040
L3310 4060
L3190 4060
" />
<path d="M3690 4060
L3690 3560
L3810 3560
L3880 3590
L3930 3630
L3950 3680
L3980 3780
L3980 3850
L3950 3940
L3930 3990
L3880 4040
L3810 4060
L3690 4060
" />
<path d="M4170 3610
L4190 3590
L4240 3560
L4360 3560
L4410 3590
L4430 3610
L4450 3660
L4450 3700
L4430 3780
L4150 4060
L4450 4060
" />
</g>
<g style="fill:#840000; fill-opacity:0.0; 
stroke:#840000; stroke-width:60; stroke-opacity:1; 
stroke-linecap:round; stroke-linejoin:round;">
<path d="M1820 3710
L1530 3710
" />
<path d="M1680 3710
L1680 3210
L1630 3280
L1580 3330
L1530 3350
" />
<path d="M2250 3380
L2250 3710
" />
<path d="M2130 3190
L2010 3540
L2320 3540
" />
<path d="M2420 8840
L1420 8840
" />
</g>
<g style="fill:#008484; fill-opacity:0.0; 
stroke:#008484; stroke-width:60; stroke-opacity:1; 
stroke-linecap:round; stroke-linejoin:round;">
<path d="M3000 9060
L2760 9060
L2760 8560
" />
<path d="M3170 8800
L3340 8800
" />
<path d="M3410 9060
L3170 9060
L3170 8560
L3410 8560
" />
<path d="M3620 9060
L3620 8560
L3740 8560
L3810 8590
L3860 8630
L3880 8680
L3910 8780
L3910 8850
L3880 8940
L3860 8990
L3810 9040
L3740 9060
L3620 9060
" />
<path d="M4000 9110
L4380 9110
" />
<path d="M4500 9060
L4500 8560
L4620 8560
L4690 8590
L4740 8630
L4760 8680
L4790 8780
L4790 8850
L4760 8940
L4740 8990
L4690 9040
L4620 9060
L4500 9060
" />
<path d="M5290 9060
L5120 8820
" />
<path d="M5000 9060
L5000 8560
L5190 8560
L5240 8590
L5260 8610
L5290 8660
L5290 8730
L5260 8780
L5240 8800
L5190 8820
L5000 8820
" />
<path d="M5430 8560
L5600 9060
L5760 8560
" />
</g>
<g style="fill:#840000; fill-opacity:0.0; 
stroke:#840000; stroke-width:60; stroke-opacity:1; 
stroke-linecap:round; stroke-linejoin:round;">
<path d="M1820 8710
L1530 8710
" />
<path d="M1680 8710
L1680 8210
L1630 8280
L1580 8330
L1530 8350
" />
<path d="M2270 8210
L2030 8210
L2010 8450
L2030 8430
L2080 8400
L2200 8400
L2250 8430
L2270 8450
L2300 8500
L2300 8620
L2270 8660
L2250 8690
L2200 8710
L2080 8710
L2030 8690
L2010 8660
" />
<path d="M2420 5840
L1420 5840
" />
</g>
<g style="fill:#008484; fill-opacity:0.0; 
stroke:#008484; stroke-width:60; stroke-opacity:1; 
stroke-linecap:round; stroke-linejoin:round;">
<path d="M3030 5590
L2980 5560
L2910 5560
L2840 5590
L2790 5630
L2760 5680
L2740 5780
L2740 5850
L2760 5940
L2790 5990
L2840 6040
L2910 6060
L2950 6060
L3030 6040
L3050 6010
L3050 5850
L2950 5850
" />
<path d="M3260 6060
L3260 5560
L3550 6060
L3550 5560
" />
<path d="M3790 6060
L3790 5560
L3910 5560
L3980 5590
L4030 5630
L4050 5680
L4070 5780
L4070 5850
L4050 5940
L4030 5990
L3980 6040
L3910 6060
L3790 6060
" />
</g>
<g style="fill:#840000; fill-opacity:0.0; 
stroke:#840000; stroke-width:60; stroke-opacity:1; 
stroke-linecap:round; stroke-linejoin:round;">
<path d="M1820 5710
L1530 5710
" />
<path d="M1680 5710
L1680 5210
L1630 5280
L1580 5330
L1530 5350
" />
<path d="M2250 5210
L2150 5210
L2110 5240
L2080 5260
L2030 5330
L2010 5430
L2010 5620
L2030 5660
L2060 5690
L2110 5710
L2200 5710
L2250 5690
L2270 5660
L2300 5620
L2300 5500
L2270 5450
L2250 5430
L2200 5400
L2110 5400
L2060 5430
L2030 5450
L2010 5500
" />
<path d="M2420 2840
L1420 2840
" />
</g>
<g style="fill:#008484; fill-opacity:0.0; 
stroke:#008484; stroke-width:60; stroke-opacity:1; 
stroke-linecap:round; stroke-linejoin:round;">
<path d="M2690 2560
L2860 3060
L3030 2560
" />
<path d="M3190 3060
L3190 2560
L3310 2560
L3380 2590
L3430 2630
L3450 2680
L3480 2780
L3480 2850
L3450 2940
L3430 2990
L3380 3040
L3310 3060
L3190 3060
" />
<path d="M3690 3060
L3690 2560
L3810 2560
L3880 2590
L3930 2630
L3950 2680
L3980 2780
L3980 2850
L3950 2940
L3930 2990
L3880 3040
L3810 3060
L3690 3060
" />
<path d="M4450 3060
L4170 3060
" />
<path d="M4310 3060
L4310 2560
L4260 2630
L4220 2680
L4170 2700
" />
</g>
<g style="fill:#840000; fill-opacity:0.0; 
stroke:#840000; stroke-width:60; stroke-opacity:1; 
stroke-linecap:round; stroke-linejoin:round;">
<path d="M1820 2710
L1530 2710
" />
<path d="M1680 2710
L1680 2210
L1630 2280
L1580 2330
L1530 2350
" />
<path d="M1990 2210
L2320 2210
L2110 2710
" />
<path d="M2420 9840
L1420 9840
" />
</g>
<g style="fill:#008484; fill-opacity:0.0; 
stroke:#008484; stroke-width:60; stroke-opacity:1; 
stroke-linecap:round; stroke-linejoin:round;">
<path d="M3000 10060
L2760 10060
L2760 9560
" />
<path d="M3170 9800
L3340 9800
" />
<path d="M3410 10060
L3170 10060
L3170 9560
L3410 9560
" />
<path d="M3620 10060
L3620 9560
L3740 9560
L3810 9590
L3860 9630
L3880 9680
L3910 9780
L3910 9850
L3880 9940
L3860 9990
L3810 10040
L3740 10060
L3620 10060
" />
<path d="M4000 10110
L4380 10110
" />
<path d="M4500 10060
L4500 9560
" />
<path d="M4740 10060
L4740 9560
L5030 10060
L5030 9560
" />
<path d="M5260 10060
L5260 9560
L5380 9560
L5450 9590
L5500 9630
L5530 9680
L5550 9780
L5550 9850
L5530 9940
L5500 9990
L5450 10040
L5380 10060
L5260 10060
" />
</g>
<g style="fill:#840000; fill-opacity:0.0; 
stroke:#840000; stroke-width:60; stroke-opacity:1; 
stroke-linecap:round; stroke-linejoin:round;">
<path d="M1820 9710
L1530 9710
" />
<path d="M1680 9710
L1680 9210
L1630 9280
L1580 9330
L1530 9350
" />
<path d="M2110 9430
L2060 9400
L2030 9380
L2010 9330
L2010 9310
L2030 9260
L2060 9240
L2110 9210
L2200 9210
L2250 9240
L2270 9260
L2300 9310
L2300 9330
L2270 9380
L2250 9400
L2200 9430
L2110 9430
L2060 9450
L2030 9470
L2010 9520
L2010 9620
L2030 9660
L2060 9690
L2110 9710
L2200 9710
L2250 9690
L2270 9660
L2300 9620
L2300 9520
L2270 9470
L2250 9450
L2200 9430
" />
<path d="M14920 9840
L15920 9840
" />
<path d="M15770 9690
L16070 9990
" />
<path d="M16070 9690
L15770 9990
" />
</g>
<g style="fill:#008484; fill-opacity:0.0; 
stroke:#008484; stroke-width:60; stroke-opacity:1; 
stroke-linecap:round; stroke-linejoin:round;">
<path d="M13780 10060
L13780 9560
L14070 10060
L14070 9560
" />
<path d="M14590 10010
L14570 10040
L14490 10060
L14450 10060
L14380 10040
L14330 9990
L14300 9940
L14280 9850
L14280 9780
L14300 9680
L14330 9630
L14380 9590
L14450 9560
L14490 9560
L14570 9590
L14590 9610
" />
</g>
<g style="fill:#840000; fill-opacity:0.0; 
stroke:#840000; stroke-width:60; stroke-opacity:1; 
stroke-linecap:round; stroke-linejoin:round;">
<path d="M15320 9710
L15030 9710
" />
<path d="M15180 9710
L15180 9210
L15130 9280
L15080 9330
L15030 9350
" />
<path d="M15560 9710
L15650 9710
L15700 9690
L15720 9660
L15770 9590
L15800 9500
L15800 9310
L15770 9260
L15750 9240
L15700 9210
L15610 9210
L15560 9240
L15530 9260
L15510 9310
L15510 9430
L15530 9470
L15560 9500
L15610 9520
L15700 9520
L15750 9500
L15770 9470
L15800 9430
" />
<path d="M2420 4840
L1420 4840
" />
</g>
<g style="fill:#008484; fill-opacity:0.0; 
stroke:#008484; stroke-width:60; stroke-opacity:1; 
stroke-linecap:round; stroke-linejoin:round;">
<path d="M2650 4420
L3150 4420
" />
<path d="M3050 5060
L2880 4820
" />
<path d="M2760 5060
L2760 4560
L2950 4560
L3000 4590
L3030 4610
L3050 4660
L3050 4730
L3030 4780
L3000 4800
L2950 4820
L2760 4820
" />
<path d="M3150 4420
L3600 4420
" />
<path d="M3260 4800
L3430 4800
" />
<path d="M3500 5060
L3260 5060
L3260 4560
L3500 4560
" />
<path d="M3600 4420
L4070 4420
" />
<path d="M3690 5040
L3760 5060
L3880 5060
L3930 5040
L3950 5010
L3980 4970
L3980 4920
L3950 4870
L3930 4850
L3880 4820
L3790 4800
L3740 4780
L3720 4750
L3690 4700
L3690 4660
L3720 4610
L3740 4590
L3790 4560
L3910 4560
L3980 4590
" />
</g>
<g style="fill:#840000; fill-opacity:0.0; 
stroke:#840000; stroke-width:60; stroke-opacity:1; 
stroke-linecap:round; stroke-linejoin:round;">
<path d="M1770 4260
L1800 4240
L1840 4210
L1960 4210
L2010 4240
L2030 4260
L2060 4310
L2060 4350
L2030 4430
L1750 4710
L2060 4710
" />
<path d="M14920 10840
L15920 10840
" />
<path d="M15770 10690
L16070 10990
" />
<path d="M16070 10690
L15770 10990
" />
</g>
<g style="fill:#008484; fill-opacity:0.0; 
stroke:#008484; stroke-width:60; stroke-opacity:1; 
stroke-linecap:round; stroke-linejoin:round;">
<path d="M11090 10420
L11570 10420
" />
<path d="M11190 11040
L11260 11060
L11380 11060
L11420 11040
L11450 11010
L11470 10970
L11470 10920
L11450 10870
L11420 10850
L11380 10820
L11280 10800
L11230 10780
L11210 10750
L11190 10700
L11190 10660
L11210 10610
L11230 10590
L11280 10560
L11400 10560
L11470 10590
" />
<path d="M11570 10420
L11970 10420
" />
<path d="M11920 11060
L11690 11060
L11690 10560
" />
<path d="M11970 10420
L12400 10420
" />
<path d="M12020 10560
L12190 11060
L12350 10560
" />
<path d="M12400 10420
L12880 10420
" />
<path d="M12490 10610
L12520 10590
L12570 10560
L12690 10560
L12730 10590
L12760 10610
L12780 10660
L12780 10700
L12760 10780
L12470 11060
L12780 11060
" />
<path d="M12880 10420
L13260 10420
" />
<path d="M12880 11110
L13260 11110
" />
<path d="M13260 10420
L13760 10420
" />
<path d="M13660 11060
L13490 10820
" />
<path d="M13380 11060
L13380 10560
L13570 10560
L13610 10590
L13640 10610
L13660 10660
L13660 10730
L13640 10780
L13610 10800
L13570 10820
L13380 10820
" />
<path d="M13760 10420
L14210 10420
" />
<path d="M13880 10800
L14040 10800
" />
<path d="M14110 11060
L13880 11060
L13880 10560
L14110 10560
" />
<path d="M14210 10420
L14680 10420
" />
<path d="M14300 11040
L14380 11060
L14490 11060
L14540 11040
L14570 11010
L14590 10970
L14590 10920
L14570 10870
L14540 10850
L14490 10820
L14400 10800
L14350 10780
L14330 10750
L14300 10700
L14300 10660
L14330 10610
L14350 10590
L14400 10560
L14520 10560
L14590 10590
" />
</g>
<g style="fill:#840000; fill-opacity:0.0; 
stroke:#840000; stroke-width:60; stroke-opacity:1; 
stroke-linecap:round; stroke-linejoin:round;">
<path d="M15030 10260
L15060 10240
L15110 10210
L15220 10210
L15270 10240
L15300 10260
L15320 10310
L15320 10350
L15300 10430
L15010 10710
L15320 10710
" />
<path d="M15630 10210
L15680 10210
L15720 10240
L15750 10260
L15770 10310
L15800 10400
L15800 10520
L15770 10620
L15750 10660
L15720 10690
L15680 10710
L15630 10710
L15580 10690
L15560 10660
L15530 10620
L15510 10520
L15510 10400
L15530 10310
L15560 10260
L15580 10240
L15630 10210
" />
<path d="M14920 6840
L15920 6840
" />
<path d="M15770 6690
L16070 6990
" />
<path d="M16070 6690
L15770 6990
" />
</g>
<g style="fill:#008484; fill-opacity:0.0; 
stroke:#008484; stroke-width:60; stroke-opacity:1; 
stroke-linecap:round; stroke-linejoin:round;">
<path d="M13300 7040
L13380 7060
L13490 7060
L13540 7040
L13570 7010
L13590 6970
L13590 6920
L13570 6870
L13540 6850
L13490 6820
L13400 6800
L13350 6780
L13330 6750
L13300 6700
L13300 6660
L13330 6610
L13350 6590
L13400 6560
L13520 6560
L13590 6590
" />
<path d="M14090 7010
L14070 7040
L13990 7060
L13950 7060
L13880 7040
L13830 6990
L13800 6940
L13780 6850
L13780 6780
L13800 6680
L13830 6630
L13880 6590
L13950 6560
L13990 6560
L14070 6590
L14090 6610
" />
<path d="M14300 7060
L14300 6560
" />
<path d="M14590 7060
L14380 6780
" />
<path d="M14590 6560
L14300 6850
" />
</g>
<g style="fill:#840000; fill-opacity:0.0; 
stroke:#840000; stroke-width:60; stroke-opacity:1; 
stroke-linecap:round; stroke-linejoin:round;">
<path d="M15250 6210
L15560 6210
L15390 6400
L15460 6400
L15510 6430
L15530 6450
L15560 6500
L15560 6620
L15530 6660
L15510 6690
L15460 6710
L15320 6710
L15270 6690
L15250 6660
" />
<path d="M14920 5840
L15920 5840
" />
<path d="M15770 5690
L16070 5990
" />
<path d="M16070 5690
L15770 5990
" />
</g>
<g style="fill:#008484; fill-opacity:0.0; 
stroke:#008484; stroke-width:60; stroke-opacity:1; 
stroke-linecap:round; stroke-linejoin:round;">
<path d="M12990 6060
L12990 5560
L13160 5920
L13330 5560
L13330 6060
" />
<path d="M13660 5560
L13760 5560
L13800 5590
L13850 5630
L13880 5730
L13880 5890
L13850 5990
L13800 6040
L13760 6060
L13660 6060
L13610 6040
L13570 5990
L13540 5890
L13540 5730
L13570 5630
L13610 5590
L13660 5560
" />
<path d="M14070 6040
L14140 6060
L14260 6060
L14300 6040
L14330 6010
L14350 5970
L14350 5920
L14330 5870
L14300 5850
L14260 5820
L14160 5800
L14110 5780
L14090 5750
L14070 5700
L14070 5660
L14090 5610
L14110 5590
L14160 5560
L14280 5560
L14350 5590
" />
<path d="M14570 6060
L14570 5560
" />
</g>
<g style="fill:#840000; fill-opacity:0.0; 
stroke:#840000; stroke-width:60; stroke-opacity:1; 
stroke-linecap:round; stroke-linejoin:round;">
<path d="M15510 5380
L15510 5710
" />
<path d="M15390 5190
L15270 5540
L15580 5540
" />
<path d="M14920 4840
L15920 4840
" />
<path d="M15770 4690
L16070 4990
" />
<path d="M16070 4690
L15770 4990
" />
</g>
<g style="fill:#008484; fill-opacity:0.0; 
stroke:#008484; stroke-width:60; stroke-opacity:1; 
stroke-linecap:round; stroke-linejoin:round;">
<path d="M12990 5060
L12990 4560
L13160 4920
L13330 4560
L13330 5060
" />
<path d="M13570 5060
L13570 4560
" />
<path d="M13780 5040
L13850 5060
L13970 5060
L14020 5040
L14040 5010
L14070 4970
L14070 4920
L14040 4870
L14020 4850
L13970 4820
L13880 4800
L13830 4780
L13800 4750
L13780 4700
L13780 4660
L13800 4610
L13830 4590
L13880 4560
L13990 4560
L14070 4590
" />
<path d="M14380 4560
L14470 4560
L14520 4590
L14570 4630
L14590 4730
L14590 4890
L14570 4990
L14520 5040
L14470 5060
L14380 5060
L14330 5040
L14280 4990
L14260 4890
L14260 4730
L14280 4630
L14330 4590
L14380 4560
" />
</g>
<g style="fill:#840000; fill-opacity:0.0; 
stroke:#840000; stroke-width:60; stroke-opacity:1; 
stroke-linecap:round; stroke-linejoin:round;">
<path d="M15530 4210
L15300 4210
L15270 4450
L15300 4430
L15340 4400
L15460 4400
L15510 4430
L15530 4450
L15560 4500
L15560 4620
L15530 4660
L15510 4690
L15460 4710
L15340 4710
L15300 4690
L15270 4660
" />
<path d="M14920 3840
L15920 3840
" />
<path d="M15770 3690
L16070 3990
" />
<path d="M16070 3690
L15770 3990
" />
</g>
<g style="fill:#008484; fill-opacity:0.0; 
stroke:#008484; stroke-width:60; stroke-opacity:1; 
stroke-linecap:round; stroke-linejoin:round;">
<path d="M13710 3420
L14210 3420
" />
<path d="M14110 4010
L14090 4040
L14020 4060
L13970 4060
L13900 4040
L13850 3990
L13830 3940
L13800 3850
L13800 3780
L13830 3680
L13850 3630
L13900 3590
L13970 3560
L14020 3560
L14090 3590
L14110 3610
" />
<path d="M14210 3420
L14690 3420
" />
<path d="M14300 4040
L14380 4060
L14490 4060
L14540 4040
L14570 4010
L14590 3970
L14590 3920
L14570 3870
L14540 3850
L14490 3820
L14400 3800
L14350 3780
L14330 3750
L14300 3700
L14300 3660
L14330 3610
L14350 3590
L14400 3560
L14520 3560
L14590 3590
" />
</g>
<g style="fill:#840000; fill-opacity:0.0; 
stroke:#840000; stroke-width:60; stroke-opacity:1; 
stroke-linecap:round; stroke-linejoin:round;">
<path d="M15510 3210
L15420 3210
L15370 3240
L15340 3260
L15300 3330
L15270 3430
L15270 3620
L15300 3660
L15320 3690
L15370 3710
L15460 3710
L15510 3690
L15530 3660
L15560 3620
L15560 3500
L15530 3450
L15510 3430
L15460 3400
L15370 3400
L15320 3430
L15300 3450
L15270 3500
" />
<path d="M14920 2840
L15920 2840
" />
<path d="M15770 2690
L16070 2990
" />
<path d="M16070 2690
L15770 2990
" />
</g>
<g style="fill:#008484; fill-opacity:0.0; 
stroke:#008484; stroke-width:60; stroke-opacity:1; 
stroke-linecap:round; stroke-linejoin:round;">
<path d="M13780 3060
L13780 2560
L14070 3060
L14070 2560
" />
<path d="M14590 3010
L14570 3040
L14490 3060
L14450 3060
L14380 3040
L14330 2990
L14300 2940
L14280 2850
L14280 2780
L14300 2680
L14330 2630
L14380 2590
L14450 2560
L14490 2560
L14570 2590
L14590 2610
" />
</g>
<g style="fill:#840000; fill-opacity:0.0; 
stroke:#840000; stroke-width:60; stroke-opacity:1; 
stroke-linecap:round; stroke-linejoin:round;">
<path d="M15250 2210
L15580 2210
L15370 2710
" />
<path d="M14920 7840
L15920 7840
" />
<path d="M15770 7690
L16070 7990
" />
<path d="M16070 7690
L15770 7990
" />
</g>
<g style="fill:#008484; fill-opacity:0.0; 
stroke:#008484; stroke-width:60; stroke-opacity:1; 
stroke-linecap:round; stroke-linejoin:round;">
<path d="M11730 8060
L11730 7560
" />
<path d="M11950 7610
L11970 7590
L12020 7560
L12140 7560
L12190 7590
L12210 7610
L12230 7660
L12230 7700
L12210 7780
L11920 8060
L12230 8060
" />
<path d="M12730 8010
L12710 8040
L12640 8060
L12590 8060
L12520 8040
L12470 7990
L12450 7940
L12420 7850
L12420 7780
L12450 7680
L12470 7630
L12520 7590
L12590 7560
L12640 7560
L12710 7590
L12730 7610
" />
<path d="M12830 8110
L13210 8110
" />
<path d="M13330 7800
L13490 7800
" />
<path d="M13570 8060
L13330 8060
L13330 7560
L13570 7560
" />
<path d="M13780 8060
L13780 7560
L14070 8060
L14070 7560
" />
<path d="M14470 7800
L14540 7820
L14570 7850
L14590 7890
L14590 7970
L14570 8010
L14540 8040
L14490 8060
L14300 8060
L14300 7560
L14470 7560
L14520 7590
L14540 7610
L14570 7660
L14570 7700
L14540 7750
L14520 7780
L14470 7800
L14300 7800
" />
</g>
<g style="fill:#840000; fill-opacity:0.0; 
stroke:#840000; stroke-width:60; stroke-opacity:1; 
stroke-linecap:round; stroke-linejoin:round;">
<path d="M15370 7430
L15320 7400
L15300 7380
L15270 7330
L15270 7310
L15300 7260
L15320 7240
L15370 7210
L15460 7210
L15510 7240
L15530 7260
L15560 7310
L15560 7330
L15530 7380
L15510 7400
L15460 7430
L15370 7430
L15320 7450
L15300 7470
L15270 7520
L15270 7620
L15300 7660
L15320 7690
L15370 7710
L15460 7710
L15510 7690
L15530 7660
L15560 7620
L15560 7520
L15530 7470
L15510 7450
L15460 7430
" />
<path d="M14920 14840
L15920 14840
" />
</g>
<g style="fill:#008484; fill-opacity:0.0; 
stroke:#008484; stroke-width:60; stroke-opacity:1; 
stroke-linecap:round; stroke-linejoin:round;">
<path d="M12540 15040
L12610 15060
L12730 15060
L12780 15040
L12800 15010
L12830 14970
L12830 14920
L12800 14870
L12780 14850
L12730 14820
L12640 14800
L12590 14780
L12570 14750
L12540 14700
L12540 14660
L12570 14610
L12590 14590
L12640 14560
L12760 14560
L12830 14590
" />
<path d="M13330 15010
L13300 15040
L13230 15060
L13190 15060
L13110 15040
L13070 14990
L13040 14940
L13020 14850
L13020 14780
L13040 14680
L13070 14630
L13110 14590
L13190 14560
L13230 14560
L13300 14590
L13330 14610
" />
<path d="M13780 15060
L13540 15060
L13540 14560
" />
<path d="M13830 15110
L14210 15110
" />
<path d="M14300 15040
L14380 15060
L14490 15060
L14540 15040
L14570 15010
L14590 14970
L14590 14920
L14570 14870
L14540 14850
L14490 14820
L14400 14800
L14350 14780
L14330 14750
L14300 14700
L14300 14660
L14330 14610
L14350 14590
L14400 14560
L14520 14560
L14590 14590
" />
</g>
<g style="fill:#840000; fill-opacity:0.0; 
stroke:#840000; stroke-width:60; stroke-opacity:1; 
stroke-linecap:round; stroke-linejoin:round;">
<path d="M15320 14710
L15420 14710
L15460 14690
L15490 14660
L15530 14590
L15560 14500
L15560 14310
L15530 14260
L15510 14240
L15460 14210
L15370 14210
L15320 14240
L15300 14260
L15270 14310
L15270 14430
L15300 14470
L15320 14500
L15370 14520
L15460 14520
L15510 14500
L15530 14470
L15560 14430
" />
</g>
<g style="fill:#840084; fill-opacity:0.0; 
stroke:#840084; stroke-width:60; stroke-opacity:1; 
stroke-linecap:round; stroke-linejoin:round;">
</g>
<g style="fill:#008484; fill-opacity:0.0; 
stroke:#008484; stroke-width:60; stroke-opacity:1; 
stroke-linecap:round; stroke-linejoin:round;">
<path d="M2310 1580
L2310 1990
L2330 2030
L2360 2060
L2400 2080
L2500 2080
L2550 2060
L2570 2030
L2590 1990
L2590 1580
" />
<path d="M2900 2030
L2930 2060
L2900 2080
L2880 2060
L2900 2030
L2900 2080
" />
<path d="M2810 1610
L2860 1580
L2970 1580
L3020 1610
L3050 1650
L3050 1700
L3020 1750
L3000 1770
L2950 1800
L2930 1820
L2900 1870
L2900 1890
" />
<path d="M3430 1820
L3500 1840
L3520 1870
L3550 1910
L3550 1990
L3520 2030
L3500 2060
L3450 2080
L3260 2080
L3260 1580
L3430 1580
L3470 1610
L3500 1630
L3520 1680
L3520 1720
L3500 1770
L3470 1800
L3430 1820
L3260 1820
" />
<path d="M7400 1940
L7640 1940
" />
<path d="M7360 2080
L7520 1580
L7690 2080
" />
<path d="M7830 2060
L7900 2080
L8020 2080
L8070 2060
L8090 2030
L8120 1990
L8120 1940
L8090 1890
L8070 1870
L8020 1840
L7930 1820
L7880 1800
L7860 1770
L7830 1720
L7830 1680
L7860 1630
L7880 1610
L7930 1580
L8050 1580
L8120 1610
" />
<path d="M8280 1580
L8620 1580
L8400 2080
" />
<path d="M8780 1630
L8810 1610
L8860 1580
L8970 1580
L9020 1610
L9050 1630
L9070 1680
L9070 1720
L9050 1800
L8760 2080
L9070 2080
" />
<path d="M9500 1580
L9400 1580
L9360 1610
L9330 1630
L9280 1700
L9260 1800
L9260 1990
L9280 2030
L9310 2060
L9360 2080
L9450 2080
L9500 2060
L9520 2030
L9550 1990
L9550 1870
L9520 1820
L9500 1800
L9450 1770
L9360 1770
L9310 1800
L9280 1820
L9260 1870
" />
<path d="M10000 1580
L9760 1580
L9740 1820
L9760 1800
L9810 1770
L9930 1770
L9970 1800
L10000 1820
L10020 1870
L10020 1990
L10000 2030
L9970 2060
L9930 2080
L9810 2080
L9760 2060
L9740 2030
" />
<path d="M10190 2080
L10450 1750
" />
<path d="M10190 1750
L10450 2080
" />
</g>
<g style="fill:#840084; fill-opacity:0.0; 
stroke:#840084; stroke-width:60; stroke-opacity:1; 
stroke-linecap:round; stroke-linejoin:round;">
<path d="M430 16580
L430 16080
L620 16080
L670 16110
L690 16130
L710 16180
L710 16250
L690 16300
L670 16320
L620 16340
L430 16340
" />
<path d="M1140 16580
L1140 16320
L1120 16270
L1070 16250
L970 16250
L930 16270
" />
<path d="M1140 16560
L1090 16580
L970 16580
L930 16560
L900 16510
L900 16460
L930 16410
L970 16390
L1090 16390
L1140 16370
" />
<path d="M1590 16560
L1550 16580
L1450 16580
L1400 16560
L1380 16530
L1360 16490
L1360 16340
L1380 16300
L1400 16270
L1450 16250
L1550 16250
L1590 16270
" />
<path d="M1810 16580
L1810 16080
" />
<path d="M1860 16390
L2000 16580
" />
<path d="M2000 16250
L1810 16440
" />
<path d="M2430 16580
L2430 16320
L2400 16270
L2360 16250
L2260 16250
L2210 16270
" />
<path d="M2430 16560
L2380 16580
L2260 16580
L2210 16560
L2190 16510
L2190 16460
L2210 16410
L2260 16390
L2380 16390
L2430 16370
" />
<path d="M2880 16250
L2880 16650
L2860 16700
L2830 16720
L2780 16750
L2710 16750
L2670 16720
" />
<path d="M2880 16560
L2830 16580
L2740 16580
L2690 16560
L2670 16530
L2640 16490
L2640 16340
L2670 16300
L2690 16270
L2740 16250
L2830 16250
L2880 16270
" />
<path d="M3310 16560
L3260 16580
L3170 16580
L3120 16560
L3090 16510
L3090 16320
L3120 16270
L3170 16250
L3260 16250
L3310 16270
L3330 16320
L3330 16370
L3090 16410
" />
<path d="M3430 16630
L3810 16630
" />
<path d="M4170 16580
L3930 16580
L3930 16080
" />
<path d="M4590 16110
L4550 16080
L4470 16080
L4400 16110
L4360 16150
L4330 16200
L4310 16300
L4310 16370
L4330 16460
L4360 16510
L4400 16560
L4470 16580
L4520 16580
L4590 16560
L4620 16530
L4620 16370
L4520 16370
" />
<path d="M4810 16440
L5050 16440
" />
<path d="M4760 16580
L4930 16080
L5090 16580
" />
<path d="M5260 16530
L5280 16560
L5260 16580
L5240 16560
L5260 16530
L5260 16580
" />
<path d="M5260 16270
L5280 16300
L5260 16320
L5240 16300
L5260 16270
L5260 16320
" />
<path d="M5470 16440
L5710 16440
" />
<path d="M5430 16580
L5590 16080
L5760 16580
" />
<path d="M5930 16580
L5930 16080
L6090 16440
L6260 16080
L6260 16580
" />
<path d="M6470 16560
L6550 16580
L6670 16580
L6710 16560
L6740 16530
L6760 16490
L6760 16440
L6740 16390
L6710 16370
L6670 16340
L6570 16320
L6520 16300
L6500 16270
L6470 16220
L6470 16180
L6500 16130
L6520 16110
L6570 16080
L6690 16080
L6760 16110
" />
<path d="M6860 16630
L7240 16630
" />
<path d="M7590 16580
L7360 16580
L7360 16080
" />
<path d="M8020 16110
L7970 16080
L7900 16080
L7830 16110
L7780 16150
L7760 16200
L7740 16300
L7740 16370
L7760 16460
L7780 16510
L7830 16560
L7900 16580
L7950 16580
L8020 16560
L8050 16530
L8050 16370
L7950 16370
" />
<path d="M8240 16440
L8470 16440
" />
<path d="M8190 16580
L8360 16080
L8520 16580
" />
<path d="M8690 16390
L9070 16390
" />
<path d="M9280 16130
L9310 16110
L9360 16080
L9470 16080
L9520 16110
L9550 16130
L9570 16180
L9570 16220
L9550 16300
L9260 16580
L9570 16580
" />
<path d="M9880 16080
L9930 16080
L9970 16110
L10000 16130
L10020 16180
L10050 16270
L10050 16390
L10020 16490
L10000 16530
L9970 16560
L9930 16580
L9880 16580
L9830 16560
L9810 16530
L9780 16490
L9760 16390
L9760 16270
L9780 16180
L9810 16130
L9830 16110
L9880 16080
" />
<path d="M10140 16630
L10520 16630
" />
<path d="M10860 16250
L10860 16580
" />
<path d="M10740 16060
L10620 16410
L10930 16410
" />
<path d="M11120 16530
L11140 16560
L11120 16580
L11090 16560
L11120 16530
L11120 16580
" />
<path d="M11310 16080
L11640 16080
L11430 16580
" />
<path d="M11780 16580
L12050 16250
" />
<path d="M11780 16250
L12050 16580
" />
<path d="M12450 16250
L12450 16580
" />
<path d="M12330 16060
L12210 16410
L12520 16410
" />
<path d="M12710 16530
L12740 16560
L12710 16580
L12690 16560
L12710 16530
L12710 16580
" />
<path d="M13190 16080
L12950 16080
L12930 16320
L12950 16300
L13000 16270
L13120 16270
L13170 16300
L13190 16320
L13210 16370
L13210 16490
L13190 16530
L13170 16560
L13120 16580
L13000 16580
L12950 16560
L12930 16530
" />
<path d="M13430 16580
L13430 16250
" />
<path d="M13430 16300
L13450 16270
L13500 16250
L13570 16250
L13620 16270
L13640 16320
L13640 16580
" />
<path d="M13640 16320
L13670 16270
L13710 16250
L13780 16250
L13830 16270
L13860 16320
L13860 16580
" />
<path d="M14090 16580
L14090 16250
" />
<path d="M14090 16300
L14120 16270
L14170 16250
L14240 16250
L14280 16270
L14310 16320
L14310 16580
" />
<path d="M14310 16320
L14330 16270
L14380 16250
L14450 16250
L14500 16270
L14520 16320
L14520 16580
" />
<path d="M14640 16630
L15020 16630
" />
<path d="M15140 16580
L15140 16080
L15330 16080
L15380 16110
L15400 16130
L15430 16180
L15430 16250
L15400 16300
L15380 16320
L15330 16340
L15140 16340
" />
<path d="M15740 16080
L15780 16080
L15830 16110
L15860 16130
L15880 16180
L15900 16270
L15900 16390
L15880 16490
L15860 16530
L15830 16560
L15780 16580
L15740 16580
L15690 16560
L15670 16530
L15640 16490
L15620 16390
L15620 16270
L15640 16180
L15670 16130
L15690 16110
L15740 16080
" />
<path d="M16120 16530
L16140 16560
L16120 16580
L16090 16560
L16120 16530
L16120 16580
" />
<path d="M16570 16080
L16470 16080
L16430 16110
L16400 16130
L16360 16200
L16330 16300
L16330 16490
L16360 16530
L16380 16560
L16430 16580
L16520 16580
L16570 16560
L16590 16530
L16620 16490
L16620 16370
L16590 16320
L16570 16300
L16520 16270
L16430 16270
L16380 16300
L16360 16320
L16330 16370
" />
<path d="M17070 16080
L16830 16080
L16810 16320
L16830 16300
L16880 16270
L17000 16270
L17050 16300
L17070 16320
L17090 16370
L17090 16490
L17070 16530
L17050 16560
L17000 16580
L16880 16580
L16830 16560
L16810 16530
" />
<path d="M17310 16580
L17310 16250
" />
<path d="M17310 16300
L17330 16270
L17380 16250
L17450 16250
L17500 16270
L17520 16320
L17520 16580
" />
<path d="M17520 16320
L17550 16270
L17590 16250
L17670 16250
L17710 16270
L17740 16320
L17740 16580
" />
<path d="M17970 16580
L17970 16250
" />
<path d="M17970 16300
L18000 16270
L18050 16250
L18120 16250
L18170 16270
L18190 16320
L18190 16580
" />
<path d="M18190 16320
L18210 16270
L18260 16250
L18330 16250
L18380 16270
L18400 16320
L18400 16580
" />
</g> 
</svg>
