<?xml version="1.0" standalone="no"?>
 <!DOCTYPE svg PUBLIC "-//W3C//DTD SVG 1.1//EN" 
 "http://www.w3.org/Graphics/SVG/1.1/DTD/svg11.dtd"> 
<svg xmlns="http://www.w3.org/2000/svg" version="1.1" 
    width="3.1623cm" height="5.04444cm" viewBox="0 0 12450 19860 ">
<title>SVG Picture created as AS7265x_1.svg date 2019/07/28 12:36:01 </title>
  <desc>Picture generated by Eeschema-SVG </desc>
<g style="fill:#000000; fill-opacity:1;stroke:#000000; stroke-opacity:1;
stroke-linecap:round; stroke-linejoin:round; "
 transform="translate(0 0) scale(1 1)">
</g>
<g style="fill:#840000; fill-opacity:0.0; 
stroke:#840000; stroke-width:-10; stroke-opacity:1; 
stroke-linecap:round; stroke-linejoin:round;">
</g>
<g style="fill:#FFFFC2; fill-opacity:0.0; 
stroke:#FFFFC2; stroke-width:-10; stroke-opacity:1; 
stroke-linecap:round; stroke-linejoin:round;">
</g>
<g style="fill:#FFFFC2; fill-opacity:0.6; 
stroke:#FFFFC2; stroke-width:0; stroke-opacity:1; 
stroke-linecap:round; stroke-linejoin:round;">
<rect x="2220" y="2930" width="8000" height="14000" rx="0" />
</g>
<g style="fill:#840000; fill-opacity:0.6; 
stroke:#840000; stroke-width:0; stroke-opacity:1; 
stroke-linecap:round; stroke-linejoin:round;">
</g>
<g style="fill:#840000; fill-opacity:0.0; 
stroke:#840000; stroke-width:100; stroke-opacity:1; 
stroke-linecap:round; stroke-linejoin:round;">
<rect x="2220" y="2930" width="8000" height="14000" rx="0" />
</g>
<g style="fill:#840000; fill-opacity:0.0; 
stroke:#840000; stroke-width:60; stroke-opacity:1; 
stroke-linecap:round; stroke-linejoin:round;">
<path d="M6330 11750
L6330 11470
" />
<path d="M6500 11810
L5910 11610
L6500 11410
" />
<path d="M6470 11250
L6500 11160
L6500 11020
L6470 10960
L6450 10940
L6390 10910
L6330 10910
L6280 10940
L6250 10960
L6220 11020
L6190 11130
L6160 11190
L6140 11220
L6080 11250
L6020 11250
L5970 11220
L5940 11190
L5910 11130
L5910 10990
L5940 10910
" />
<path d="M5910 10710
L5910 10320
L6500 10570
" />
<path d="M5970 10120
L5940 10090
L5910 10040
L5910 9900
L5940 9840
L5970 9810
L6020 9780
L6080 9780
L6160 9810
L6500 10150
L6500 9780
" />
<path d="M5910 9280
L5910 9390
L5940 9450
L5970 9480
L6050 9530
L6160 9560
L6390 9560
L6450 9530
L6470 9500
L6500 9450
L6500 9340
L6470 9280
L6450 9250
L6390 9220
L6250 9220
L6190 9250
L6160 9280
L6140 9340
L6140 9450
L6160 9500
L6190 9530
L6250 9560
" />
<path d="M5910 8690
L5910 8970
L6190 9000
L6160 8970
L6140 8910
L6140 8770
L6160 8720
L6190 8690
L6250 8660
L6390 8660
L6450 8690
L6470 8720
L6500 8770
L6500 8910
L6470 8970
L6450 9000
" />
<path d="M6500 8100
L6500 8440
" />
<path d="M6500 8270
L5910 8270
L6000 8320
L6050 8380
L6080 8440
" />
<path d="M2220 11930
L1220 11930
" />
</g>
<g style="fill:#008484; fill-opacity:0.0; 
stroke:#008484; stroke-width:60; stroke-opacity:1; 
stroke-linecap:round; stroke-linejoin:round;">
<path d="M2450 11510
L2920 11510
" />
<path d="M2540 12130
L2610 12150
L2730 12150
L2780 12130
L2800 12100
L2830 12060
L2830 12010
L2800 11960
L2780 11940
L2730 11910
L2640 11890
L2590 11870
L2560 11840
L2540 11790
L2540 11750
L2560 11700
L2590 11680
L2640 11650
L2750 11650
L2830 11680
" />
<path d="M2920 11510
L3330 11510
" />
<path d="M3280 12150
L3040 12150
L3040 11650
" />
<path d="M3330 11510
L3750 11510
" />
<path d="M3370 11650
L3540 12150
L3710 11650
" />
<path d="M3750 11510
L4230 11510
" />
<path d="M4140 12150
L3850 12150
" />
<path d="M3990 12150
L3990 11650
L3950 11720
L3900 11770
L3850 11790
" />
<path d="M4230 11510
L4610 11510
" />
<path d="M4230 12200
L4610 12200
" />
<path d="M4610 11510
L5110 11510
" />
<path d="M5020 12150
L4850 11910
" />
<path d="M4730 12150
L4730 11650
L4920 11650
L4970 11680
L4990 11700
L5020 11750
L5020 11820
L4990 11870
L4970 11890
L4920 11910
L4730 11910
" />
<path d="M5110 11510
L5560 11510
" />
<path d="M5230 11890
L5400 11890
" />
<path d="M5470 12150
L5230 12150
L5230 11650
L5470 11650
" />
<path d="M5560 11510
L6040 11510
" />
<path d="M5660 12130
L5730 12150
L5850 12150
L5900 12130
L5920 12100
L5950 12060
L5950 12010
L5920 11960
L5900 11940
L5850 11910
L5750 11890
L5710 11870
L5680 11840
L5660 11790
L5660 11750
L5680 11700
L5710 11680
L5750 11650
L5870 11650
L5950 11680
" />
</g>
<g style="fill:#840000; fill-opacity:0.0; 
stroke:#840000; stroke-width:60; stroke-opacity:1; 
stroke-linecap:round; stroke-linejoin:round;">
<path d="M1860 11800
L1570 11800
" />
<path d="M1720 11800
L1720 11300
L1670 11370
L1620 11420
L1570 11440
" />
<path d="M2220 10930
L1220 10930
" />
</g>
<g style="fill:#008484; fill-opacity:0.0; 
stroke:#008484; stroke-width:60; stroke-opacity:1; 
stroke-linecap:round; stroke-linejoin:round;">
<path d="M2540 11130
L2610 11150
L2730 11150
L2780 11130
L2800 11100
L2830 11060
L2830 11010
L2800 10960
L2780 10940
L2730 10910
L2640 10890
L2590 10870
L2560 10840
L2540 10790
L2540 10750
L2560 10700
L2590 10680
L2640 10650
L2750 10650
L2830 10680
" />
<path d="M3040 11150
L3040 10650
L3160 10650
L3230 10680
L3280 10720
L3300 10770
L3330 10870
L3330 10940
L3300 11030
L3280 11080
L3230 11130
L3160 11150
L3040 11150
" />
<path d="M3520 11010
L3750 11010
" />
<path d="M3470 11150
L3640 10650
L3800 11150
" />
<path d="M3850 11200
L4230 11200
" />
<path d="M4350 11150
L4350 10650
L4520 11010
L4680 10650
L4680 11150
" />
</g>
<g style="fill:#840000; fill-opacity:0.0; 
stroke:#840000; stroke-width:60; stroke-opacity:1; 
stroke-linecap:round; stroke-linejoin:round;">
<path d="M1620 10800
L1330 10800
" />
<path d="M1480 10800
L1480 10300
L1430 10370
L1380 10420
L1330 10440
" />
<path d="M1930 10300
L1980 10300
L2020 10330
L2050 10350
L2070 10400
L2100 10490
L2100 10610
L2070 10710
L2050 10750
L2020 10780
L1980 10800
L1930 10800
L1880 10780
L1860 10750
L1830 10710
L1810 10610
L1810 10490
L1830 10400
L1860 10350
L1880 10330
L1930 10300
" />
<path d="M2220 5930
L1220 5930
" />
</g>
<g style="fill:#008484; fill-opacity:0.0; 
stroke:#008484; stroke-width:60; stroke-opacity:1; 
stroke-linecap:round; stroke-linejoin:round;">
<path d="M2850 6150
L2680 5910
" />
<path d="M2560 6150
L2560 5650
L2750 5650
L2800 5680
L2830 5700
L2850 5750
L2850 5820
L2830 5870
L2800 5890
L2750 5910
L2560 5910
" />
<path d="M3020 5650
L3350 6150
" />
<path d="M3350 5650
L3020 6150
" />
<path d="M3900 5630
L3470 6270
" />
<path d="M4040 6130
L4110 6150
L4230 6150
L4280 6130
L4300 6100
L4330 6060
L4330 6010
L4300 5960
L4280 5940
L4230 5910
L4140 5890
L4090 5870
L4060 5840
L4040 5790
L4040 5750
L4060 5700
L4090 5680
L4140 5650
L4250 5650
L4330 5680
" />
<path d="M4830 6100
L4800 6130
L4730 6150
L4680 6150
L4610 6130
L4560 6080
L4540 6030
L4520 5940
L4520 5870
L4540 5770
L4560 5720
L4610 5680
L4680 5650
L4730 5650
L4800 5680
L4830 5700
" />
<path d="M5280 6150
L5040 6150
L5040 5650
" />
<path d="M5330 6200
L5710 6200
" />
<path d="M5800 6130
L5870 6150
L5990 6150
L6040 6130
L6060 6100
L6090 6060
L6090 6010
L6060 5960
L6040 5940
L5990 5910
L5900 5890
L5850 5870
L5830 5840
L5800 5790
L5800 5750
L5830 5700
L5850 5680
L5900 5650
L6020 5650
L6090 5680
" />
</g>
<g style="fill:#840000; fill-opacity:0.0; 
stroke:#840000; stroke-width:60; stroke-opacity:1; 
stroke-linecap:round; stroke-linejoin:round;">
<path d="M1620 5800
L1330 5800
" />
<path d="M1480 5800
L1480 5300
L1430 5370
L1380 5420
L1330 5440
" />
<path d="M2100 5800
L1810 5800
" />
<path d="M1950 5800
L1950 5300
L1910 5370
L1860 5420
L1810 5440
" />
<path d="M2220 6930
L1220 6930
" />
</g>
<g style="fill:#008484; fill-opacity:0.0; 
stroke:#008484; stroke-width:60; stroke-opacity:1; 
stroke-linecap:round; stroke-linejoin:round;">
<path d="M2490 6650
L2780 6650
" />
<path d="M2640 7150
L2640 6650
" />
<path d="M2900 6650
L3230 7150
" />
<path d="M3230 6650
L2900 7150
" />
<path d="M3780 6630
L3350 7270
" />
<path d="M3920 7130
L3990 7150
L4110 7150
L4160 7130
L4180 7100
L4210 7060
L4210 7010
L4180 6960
L4160 6940
L4110 6910
L4020 6890
L3970 6870
L3950 6840
L3920 6790
L3920 6750
L3950 6700
L3970 6680
L4020 6650
L4140 6650
L4210 6680
" />
<path d="M4420 7150
L4420 6650
L4540 6650
L4610 6680
L4660 6720
L4680 6770
L4710 6870
L4710 6940
L4680 7030
L4660 7080
L4610 7130
L4540 7150
L4420 7150
" />
<path d="M4900 7010
L5140 7010
" />
<path d="M4850 7150
L5020 6650
L5180 7150
" />
<path d="M5230 7200
L5610 7200
" />
<path d="M5710 7130
L5780 7150
L5900 7150
L5950 7130
L5970 7100
L5990 7060
L5990 7010
L5970 6960
L5950 6940
L5900 6910
L5800 6890
L5750 6870
L5730 6840
L5710 6790
L5710 6750
L5730 6700
L5750 6680
L5800 6650
L5920 6650
L5990 6680
" />
</g>
<g style="fill:#840000; fill-opacity:0.0; 
stroke:#840000; stroke-width:60; stroke-opacity:1; 
stroke-linecap:round; stroke-linejoin:round;">
<path d="M1620 6800
L1330 6800
" />
<path d="M1480 6800
L1480 6300
L1430 6370
L1380 6420
L1330 6440
" />
<path d="M1810 6350
L1830 6330
L1880 6300
L2000 6300
L2050 6330
L2070 6350
L2100 6400
L2100 6440
L2070 6520
L1790 6800
L2100 6800
" />
<path d="M2220 4930
L1220 4930
" />
</g>
<g style="fill:#008484; fill-opacity:0.0; 
stroke:#008484; stroke-width:60; stroke-opacity:1; 
stroke-linecap:round; stroke-linejoin:round;">
<path d="M2560 5150
L2560 4650
" />
<path d="M2800 5150
L2800 4650
L3090 5150
L3090 4650
" />
<path d="M3250 4650
L3540 4650
" />
<path d="M3400 5150
L3400 4650
" />
</g>
<g style="fill:#840000; fill-opacity:0.0; 
stroke:#840000; stroke-width:60; stroke-opacity:1; 
stroke-linecap:round; stroke-linejoin:round;">
<path d="M1620 4800
L1330 4800
" />
<path d="M1480 4800
L1480 4300
L1430 4370
L1380 4420
L1330 4440
" />
<path d="M1790 4300
L2100 4300
L1930 4490
L2000 4490
L2050 4520
L2070 4540
L2100 4590
L2100 4710
L2070 4750
L2050 4780
L2000 4800
L1860 4800
L1810 4780
L1790 4750
" />
<path d="M7220 2930
L7220 1930
" />
</g>
<g style="fill:#008484; fill-opacity:0.0; 
stroke:#008484; stroke-width:60; stroke-opacity:1; 
stroke-linecap:round; stroke-linejoin:round;">
<path d="M6940 5010
L7440 4850
L6940 4680
" />
<path d="M7440 4510
L6940 4510
L6940 4390
L6970 4320
L7010 4270
L7060 4250
L7160 4230
L7230 4230
L7320 4250
L7370 4270
L7420 4320
L7440 4390
L7440 4510
" />
<path d="M7440 4010
L6940 4010
L6940 3890
L6970 3820
L7010 3770
L7060 3750
L7160 3730
L7230 3730
L7320 3750
L7370 3770
L7420 3820
L7440 3890
L7440 4010
" />
<path d="M6990 3540
L6970 3510
L6940 3460
L6940 3350
L6970 3300
L6990 3270
L7040 3250
L7080 3250
L7160 3270
L7440 3560
L7440 3250
" />
</g>
<g style="fill:#840000; fill-opacity:0.0; 
stroke:#840000; stroke-width:60; stroke-opacity:1; 
stroke-linecap:round; stroke-linejoin:round;">
<path d="M7090 2520
L7090 2810
" />
<path d="M7090 2660
L6590 2660
L6660 2710
L6710 2760
L6730 2810
" />
<path d="M6760 2090
L7090 2090
" />
<path d="M6570 2210
L6920 2330
L6920 2020
" />
<path d="M10220 6930
L11220 6930
" />
</g>
<g style="fill:#008484; fill-opacity:0.0; 
stroke:#008484; stroke-width:60; stroke-opacity:1; 
stroke-linecap:round; stroke-linejoin:round;">
<path d="M7180 7150
L6940 7150
L6940 6650
" />
<path d="M7340 6890
L7510 6890
" />
<path d="M7580 7150
L7340 7150
L7340 6650
L7580 6650
" />
<path d="M7790 7150
L7790 6650
L7910 6650
L7990 6680
L8030 6720
L8060 6770
L8080 6870
L8080 6940
L8060 7030
L8030 7080
L7990 7130
L7910 7150
L7790 7150
" />
<path d="M8180 7200
L8560 7200
" />
<path d="M8680 7150
L8680 6650
L8790 6650
L8870 6680
L8910 6720
L8940 6770
L8960 6870
L8960 6940
L8940 7030
L8910 7080
L8870 7130
L8790 7150
L8680 7150
" />
<path d="M9460 7150
L9290 6910
" />
<path d="M9180 7150
L9180 6650
L9370 6650
L9410 6680
L9440 6700
L9460 6750
L9460 6820
L9440 6870
L9410 6890
L9370 6910
L9180 6910
" />
<path d="M9600 6650
L9770 7150
L9940 6650
" />
</g>
<g style="fill:#840000; fill-opacity:0.0; 
stroke:#840000; stroke-width:60; stroke-opacity:1; 
stroke-linecap:round; stroke-linejoin:round;">
<path d="M10620 6800
L10330 6800
" />
<path d="M10480 6800
L10480 6300
L10430 6370
L10380 6420
L10330 6440
" />
<path d="M11070 6300
L10830 6300
L10810 6540
L10830 6520
L10880 6490
L11000 6490
L11050 6520
L11070 6540
L11100 6590
L11100 6710
L11070 6750
L11050 6780
L11000 6800
L10880 6800
L10830 6780
L10810 6750
" />
<path d="M6220 16930
L6220 17930
" />
</g>
<g style="fill:#008484; fill-opacity:0.0; 
stroke:#008484; stroke-width:60; stroke-opacity:1; 
stroke-linecap:round; stroke-linejoin:round;">
<path d="M5970 16310
L5940 16360
L5940 16430
L5970 16500
L6010 16550
L6060 16580
L6160 16600
L6230 16600
L6320 16580
L6370 16550
L6420 16500
L6440 16430
L6440 16390
L6420 16310
L6390 16290
L6230 16290
L6230 16390
" />
<path d="M6440 16080
L5940 16080
L6440 15790
L5940 15790
" />
<path d="M6440 15550
L5940 15550
L5940 15430
L5970 15360
L6010 15310
L6060 15290
L6160 15270
L6230 15270
L6320 15290
L6370 15310
L6420 15360
L6440 15430
L6440 15550
" />
</g>
<g style="fill:#840000; fill-opacity:0.0; 
stroke:#840000; stroke-width:60; stroke-opacity:1; 
stroke-linecap:round; stroke-linejoin:round;">
<path d="M6090 17520
L6090 17810
" />
<path d="M6090 17660
L5590 17660
L5660 17710
L5710 17760
L5730 17810
" />
<path d="M5590 17090
L5590 17190
L5620 17230
L5640 17260
L5710 17310
L5810 17330
L6000 17330
L6040 17310
L6070 17280
L6090 17230
L6090 17140
L6070 17090
L6040 17070
L6000 17040
L5880 17040
L5830 17070
L5810 17090
L5780 17140
L5780 17230
L5810 17280
L5830 17310
L5880 17330
" />
<path d="M5220 2930
L5220 1930
" />
</g>
<g style="fill:#008484; fill-opacity:0.0; 
stroke:#008484; stroke-width:60; stroke-opacity:1; 
stroke-linecap:round; stroke-linejoin:round;">
<path d="M4940 5010
L5440 4850
L4940 4680
" />
<path d="M5440 4510
L4940 4510
L4940 4390
L4970 4320
L5010 4270
L5060 4250
L5160 4230
L5230 4230
L5320 4250
L5370 4270
L5420 4320
L5440 4390
L5440 4510
" />
<path d="M5440 4010
L4940 4010
L4940 3890
L4970 3820
L5010 3770
L5060 3750
L5160 3730
L5230 3730
L5320 3750
L5370 3770
L5420 3820
L5440 3890
L5440 4010
" />
<path d="M5440 3250
L5440 3540
" />
<path d="M5440 3390
L4940 3390
L5010 3440
L5060 3490
L5080 3540
" />
</g>
<g style="fill:#840000; fill-opacity:0.0; 
stroke:#840000; stroke-width:60; stroke-opacity:1; 
stroke-linecap:round; stroke-linejoin:round;">
<path d="M5090 2520
L5090 2810
" />
<path d="M5090 2660
L4590 2660
L4660 2710
L4710 2760
L4730 2810
" />
<path d="M4590 2350
L4590 2020
L5090 2230
" />
<path d="M10220 5930
L11220 5930
" />
</g>
<g style="fill:#008484; fill-opacity:0.0; 
stroke:#008484; stroke-width:60; stroke-opacity:1; 
stroke-linecap:round; stroke-linejoin:round;">
<path d="M7340 6150
L7100 6150
L7100 5650
" />
<path d="M7510 5890
L7680 5890
" />
<path d="M7750 6150
L7510 6150
L7510 5650
L7750 5650
" />
<path d="M7960 6150
L7960 5650
L8080 5650
L8150 5680
L8200 5720
L8220 5770
L8250 5870
L8250 5940
L8220 6030
L8200 6080
L8150 6130
L8080 6150
L7960 6150
" />
<path d="M8340 6200
L8720 6200
" />
<path d="M8840 6150
L8840 5650
" />
<path d="M9080 6150
L9080 5650
L9370 6150
L9370 5650
" />
<path d="M9600 6150
L9600 5650
L9720 5650
L9790 5680
L9840 5720
L9870 5770
L9890 5870
L9890 5940
L9870 6030
L9840 6080
L9790 6130
L9720 6150
L9600 6150
" />
</g>
<g style="fill:#840000; fill-opacity:0.0; 
stroke:#840000; stroke-width:60; stroke-opacity:1; 
stroke-linecap:round; stroke-linejoin:round;">
<path d="M10620 5800
L10330 5800
" />
<path d="M10480 5800
L10480 5300
L10430 5370
L10380 5420
L10330 5440
" />
<path d="M10910 5520
L10860 5490
L10830 5470
L10810 5420
L10810 5400
L10830 5350
L10860 5330
L10910 5300
L11000 5300
L11050 5330
L11070 5350
L11100 5400
L11100 5420
L11070 5470
L11050 5490
L11000 5520
L10910 5520
L10860 5540
L10830 5560
L10810 5610
L10810 5710
L10830 5750
L10860 5780
L10910 5800
L11000 5800
L11050 5780
L11070 5750
L11100 5710
L11100 5610
L11070 5560
L11050 5540
L11000 5520
" />
<path d="M10220 14930
L11220 14930
" />
<path d="M11070 14780
L11370 15080
" />
<path d="M11370 14780
L11070 15080
" />
</g>
<g style="fill:#008484; fill-opacity:0.0; 
stroke:#008484; stroke-width:60; stroke-opacity:1; 
stroke-linecap:round; stroke-linejoin:round;">
<path d="M9080 15150
L9080 14650
L9370 15150
L9370 14650
" />
<path d="M9890 15100
L9870 15130
L9790 15150
L9750 15150
L9680 15130
L9630 15080
L9600 15030
L9580 14940
L9580 14870
L9600 14770
L9630 14720
L9680 14680
L9750 14650
L9790 14650
L9870 14680
L9890 14700
" />
</g>
<g style="fill:#840000; fill-opacity:0.0; 
stroke:#840000; stroke-width:60; stroke-opacity:1; 
stroke-linecap:round; stroke-linejoin:round;">
<path d="M10620 14800
L10330 14800
" />
<path d="M10480 14800
L10480 14300
L10430 14370
L10380 14420
L10330 14440
" />
<path d="M10860 14800
L10950 14800
L11000 14780
L11020 14750
L11070 14680
L11100 14590
L11100 14400
L11070 14350
L11050 14330
L11000 14300
L10910 14300
L10860 14330
L10830 14350
L10810 14400
L10810 14520
L10830 14560
L10860 14590
L10910 14610
L11000 14610
L11050 14590
L11070 14560
L11100 14520
" />
<path d="M2220 14930
L1220 14930
" />
</g>
<g style="fill:#008484; fill-opacity:0.0; 
stroke:#008484; stroke-width:60; stroke-opacity:1; 
stroke-linecap:round; stroke-linejoin:round;">
<path d="M2450 14510
L2950 14510
" />
<path d="M2850 15150
L2680 14910
" />
<path d="M2560 15150
L2560 14650
L2750 14650
L2800 14680
L2830 14700
L2850 14750
L2850 14820
L2830 14870
L2800 14890
L2750 14910
L2560 14910
" />
<path d="M2950 14510
L3400 14510
" />
<path d="M3060 14890
L3230 14890
" />
<path d="M3300 15150
L3060 15150
L3060 14650
L3300 14650
" />
<path d="M3400 14510
L3870 14510
" />
<path d="M3490 15130
L3560 15150
L3680 15150
L3730 15130
L3750 15100
L3780 15060
L3780 15010
L3750 14960
L3730 14940
L3680 14910
L3590 14890
L3540 14870
L3520 14840
L3490 14790
L3490 14750
L3520 14700
L3540 14680
L3590 14650
L3710 14650
L3780 14680
" />
</g>
<g style="fill:#840000; fill-opacity:0.0; 
stroke:#840000; stroke-width:60; stroke-opacity:1; 
stroke-linecap:round; stroke-linejoin:round;">
<path d="M1570 14350
L1600 14330
L1640 14300
L1760 14300
L1810 14330
L1830 14350
L1860 14400
L1860 14440
L1830 14520
L1550 14800
L1860 14800
" />
<path d="M2220 12930
L1220 12930
" />
</g>
<g style="fill:#008484; fill-opacity:0.0; 
stroke:#008484; stroke-width:60; stroke-opacity:1; 
stroke-linecap:round; stroke-linejoin:round;">
<path d="M2450 12510
L2920 12510
" />
<path d="M2540 13130
L2610 13150
L2730 13150
L2780 13130
L2800 13100
L2830 13060
L2830 13010
L2800 12960
L2780 12940
L2730 12910
L2640 12890
L2590 12870
L2560 12840
L2540 12790
L2540 12750
L2560 12700
L2590 12680
L2640 12650
L2750 12650
L2830 12680
" />
<path d="M2920 12510
L3330 12510
" />
<path d="M3280 13150
L3040 13150
L3040 12650
" />
<path d="M3330 12510
L3750 12510
" />
<path d="M3370 12650
L3540 13150
L3710 12650
" />
<path d="M3750 12510
L4230 12510
" />
<path d="M3850 12700
L3870 12680
L3920 12650
L4040 12650
L4090 12680
L4110 12700
L4140 12750
L4140 12790
L4110 12870
L3830 13150
L4140 13150
" />
<path d="M4230 12510
L4610 12510
" />
<path d="M4230 13200
L4610 13200
" />
<path d="M4610 12510
L5110 12510
" />
<path d="M5020 13150
L4850 12910
" />
<path d="M4730 13150
L4730 12650
L4920 12650
L4970 12680
L4990 12700
L5020 12750
L5020 12820
L4990 12870
L4970 12890
L4920 12910
L4730 12910
" />
<path d="M5110 12510
L5560 12510
" />
<path d="M5230 12890
L5400 12890
" />
<path d="M5470 13150
L5230 13150
L5230 12650
L5470 12650
" />
<path d="M5560 12510
L6040 12510
" />
<path d="M5660 13130
L5730 13150
L5850 13150
L5900 13130
L5920 13100
L5950 13060
L5950 13010
L5920 12960
L5900 12940
L5850 12910
L5750 12890
L5710 12870
L5680 12840
L5660 12790
L5660 12750
L5680 12700
L5710 12680
L5750 12650
L5870 12650
L5950 12680
" />
</g>
<g style="fill:#840000; fill-opacity:0.0; 
stroke:#840000; stroke-width:60; stroke-opacity:1; 
stroke-linecap:round; stroke-linejoin:round;">
<path d="M1330 12350
L1360 12330
L1410 12300
L1520 12300
L1570 12330
L1600 12350
L1620 12400
L1620 12440
L1600 12520
L1310 12800
L1620 12800
" />
<path d="M1930 12300
L1980 12300
L2020 12330
L2050 12350
L2070 12400
L2100 12490
L2100 12610
L2070 12710
L2050 12750
L2020 12780
L1980 12800
L1930 12800
L1880 12780
L1860 12750
L1830 12710
L1810 12610
L1810 12490
L1830 12400
L1860 12350
L1880 12330
L1930 12300
" />
<path d="M10220 11930
L11220 11930
" />
</g>
<g style="fill:#008484; fill-opacity:0.0; 
stroke:#008484; stroke-width:60; stroke-opacity:1; 
stroke-linecap:round; stroke-linejoin:round;">
<path d="M8600 12130
L8680 12150
L8790 12150
L8840 12130
L8870 12100
L8890 12060
L8890 12010
L8870 11960
L8840 11940
L8790 11910
L8700 11890
L8650 11870
L8630 11840
L8600 11790
L8600 11750
L8630 11700
L8650 11680
L8700 11650
L8820 11650
L8890 11680
" />
<path d="M9390 12100
L9370 12130
L9290 12150
L9250 12150
L9180 12130
L9130 12080
L9100 12030
L9080 11940
L9080 11870
L9100 11770
L9130 11720
L9180 11680
L9250 11650
L9290 11650
L9370 11680
L9390 11700
" />
<path d="M9600 12150
L9600 11650
" />
<path d="M9890 12150
L9680 11870
" />
<path d="M9890 11650
L9600 11940
" />
</g>
<g style="fill:#840000; fill-opacity:0.0; 
stroke:#840000; stroke-width:60; stroke-opacity:1; 
stroke-linecap:round; stroke-linejoin:round;">
<path d="M10550 11300
L10860 11300
L10690 11490
L10760 11490
L10810 11520
L10830 11540
L10860 11590
L10860 11710
L10830 11750
L10810 11780
L10760 11800
L10620 11800
L10570 11780
L10550 11750
" />
<path d="M10220 9930
L11220 9930
" />
</g>
<g style="fill:#008484; fill-opacity:0.0; 
stroke:#008484; stroke-width:60; stroke-opacity:1; 
stroke-linecap:round; stroke-linejoin:round;">
<path d="M8290 10150
L8290 9650
L8460 10010
L8630 9650
L8630 10150
" />
<path d="M8960 9650
L9060 9650
L9100 9680
L9150 9720
L9180 9820
L9180 9980
L9150 10080
L9100 10130
L9060 10150
L8960 10150
L8910 10130
L8870 10080
L8840 9980
L8840 9820
L8870 9720
L8910 9680
L8960 9650
" />
<path d="M9370 10130
L9440 10150
L9560 10150
L9600 10130
L9630 10100
L9650 10060
L9650 10010
L9630 9960
L9600 9940
L9560 9910
L9460 9890
L9410 9870
L9390 9840
L9370 9790
L9370 9750
L9390 9700
L9410 9680
L9460 9650
L9580 9650
L9650 9680
" />
<path d="M9870 10150
L9870 9650
" />
</g>
<g style="fill:#840000; fill-opacity:0.0; 
stroke:#840000; stroke-width:60; stroke-opacity:1; 
stroke-linecap:round; stroke-linejoin:round;">
<path d="M10810 9470
L10810 9800
" />
<path d="M10690 9280
L10570 9630
L10880 9630
" />
<path d="M10220 10930
L11220 10930
" />
</g>
<g style="fill:#008484; fill-opacity:0.0; 
stroke:#008484; stroke-width:60; stroke-opacity:1; 
stroke-linecap:round; stroke-linejoin:round;">
<path d="M8290 11150
L8290 10650
L8460 11010
L8630 10650
L8630 11150
" />
<path d="M8870 11150
L8870 10650
" />
<path d="M9080 11130
L9150 11150
L9270 11150
L9320 11130
L9340 11100
L9370 11060
L9370 11010
L9340 10960
L9320 10940
L9270 10910
L9180 10890
L9130 10870
L9100 10840
L9080 10790
L9080 10750
L9100 10700
L9130 10680
L9180 10650
L9290 10650
L9370 10680
" />
<path d="M9680 10650
L9770 10650
L9820 10680
L9870 10720
L9890 10820
L9890 10980
L9870 11080
L9820 11130
L9770 11150
L9680 11150
L9630 11130
L9580 11080
L9560 10980
L9560 10820
L9580 10720
L9630 10680
L9680 10650
" />
</g>
<g style="fill:#840000; fill-opacity:0.0; 
stroke:#840000; stroke-width:60; stroke-opacity:1; 
stroke-linecap:round; stroke-linejoin:round;">
<path d="M10830 10300
L10600 10300
L10570 10540
L10600 10520
L10640 10490
L10760 10490
L10810 10520
L10830 10540
L10860 10590
L10860 10710
L10830 10750
L10810 10780
L10760 10800
L10640 10800
L10600 10780
L10570 10750
" />
<path d="M10220 12930
L11220 12930
" />
</g>
<g style="fill:#008484; fill-opacity:0.0; 
stroke:#008484; stroke-width:60; stroke-opacity:1; 
stroke-linecap:round; stroke-linejoin:round;">
<path d="M9010 12510
L9510 12510
" />
<path d="M9410 13100
L9390 13130
L9320 13150
L9270 13150
L9200 13130
L9150 13080
L9130 13030
L9100 12940
L9100 12870
L9130 12770
L9150 12720
L9200 12680
L9270 12650
L9320 12650
L9390 12680
L9410 12700
" />
<path d="M9510 12510
L9990 12510
" />
<path d="M9600 13130
L9680 13150
L9790 13150
L9840 13130
L9870 13100
L9890 13060
L9890 13010
L9870 12960
L9840 12940
L9790 12910
L9700 12890
L9650 12870
L9630 12840
L9600 12790
L9600 12750
L9630 12700
L9650 12680
L9700 12650
L9820 12650
L9890 12680
" />
</g>
<g style="fill:#840000; fill-opacity:0.0; 
stroke:#840000; stroke-width:60; stroke-opacity:1; 
stroke-linecap:round; stroke-linejoin:round;">
<path d="M10810 12300
L10720 12300
L10670 12330
L10640 12350
L10600 12420
L10570 12520
L10570 12710
L10600 12750
L10620 12780
L10670 12800
L10760 12800
L10810 12780
L10830 12750
L10860 12710
L10860 12590
L10830 12540
L10810 12520
L10760 12490
L10670 12490
L10620 12520
L10600 12540
L10570 12590
" />
<path d="M10220 13930
L11220 13930
" />
<path d="M11070 13780
L11370 14080
" />
<path d="M11370 13780
L11070 14080
" />
</g>
<g style="fill:#008484; fill-opacity:0.0; 
stroke:#008484; stroke-width:60; stroke-opacity:1; 
stroke-linecap:round; stroke-linejoin:round;">
<path d="M9080 14150
L9080 13650
L9370 14150
L9370 13650
" />
<path d="M9890 14100
L9870 14130
L9790 14150
L9750 14150
L9680 14130
L9630 14080
L9600 14030
L9580 13940
L9580 13870
L9600 13770
L9630 13720
L9680 13680
L9750 13650
L9790 13650
L9870 13680
L9890 13700
" />
</g>
<g style="fill:#840000; fill-opacity:0.0; 
stroke:#840000; stroke-width:60; stroke-opacity:1; 
stroke-linecap:round; stroke-linejoin:round;">
<path d="M10550 13300
L10880 13300
L10670 13800
" />
<path d="M2220 7930
L1220 7930
" />
</g>
<g style="fill:#008484; fill-opacity:0.0; 
stroke:#008484; stroke-width:60; stroke-opacity:1; 
stroke-linecap:round; stroke-linejoin:round;">
<path d="M2560 8150
L2560 7650
" />
<path d="M2780 7700
L2800 7680
L2850 7650
L2970 7650
L3020 7680
L3040 7700
L3060 7750
L3060 7790
L3040 7870
L2750 8150
L3060 8150
" />
<path d="M3560 8100
L3540 8130
L3470 8150
L3420 8150
L3350 8130
L3300 8080
L3280 8030
L3250 7940
L3250 7870
L3280 7770
L3300 7720
L3350 7680
L3420 7650
L3470 7650
L3540 7680
L3560 7700
" />
<path d="M3660 8200
L4040 8200
" />
<path d="M4160 7890
L4330 7890
" />
<path d="M4400 8150
L4160 8150
L4160 7650
L4400 7650
" />
<path d="M4610 8150
L4610 7650
L4900 8150
L4900 7650
" />
<path d="M5300 7890
L5370 7910
L5400 7940
L5420 7980
L5420 8060
L5400 8100
L5370 8130
L5330 8150
L5140 8150
L5140 7650
L5300 7650
L5350 7680
L5370 7700
L5400 7750
L5400 7790
L5370 7840
L5350 7870
L5300 7890
L5140 7890
" />
</g>
<g style="fill:#840000; fill-opacity:0.0; 
stroke:#840000; stroke-width:60; stroke-opacity:1; 
stroke-linecap:round; stroke-linejoin:round;">
<path d="M1670 7520
L1620 7490
L1600 7470
L1570 7420
L1570 7400
L1600 7350
L1620 7330
L1670 7300
L1760 7300
L1810 7330
L1830 7350
L1860 7400
L1860 7420
L1830 7470
L1810 7490
L1760 7520
L1670 7520
L1620 7540
L1600 7560
L1570 7610
L1570 7710
L1600 7750
L1620 7780
L1670 7800
L1760 7800
L1810 7780
L1830 7750
L1860 7710
L1860 7610
L1830 7560
L1810 7540
L1760 7520
" />
<path d="M2220 9930
L1220 9930
" />
</g>
<g style="fill:#008484; fill-opacity:0.0; 
stroke:#008484; stroke-width:60; stroke-opacity:1; 
stroke-linecap:round; stroke-linejoin:round;">
<path d="M2540 10130
L2610 10150
L2730 10150
L2780 10130
L2800 10100
L2830 10060
L2830 10010
L2800 9960
L2780 9940
L2730 9910
L2640 9890
L2590 9870
L2560 9840
L2540 9790
L2540 9750
L2560 9700
L2590 9680
L2640 9650
L2750 9650
L2830 9680
" />
<path d="M3330 10100
L3300 10130
L3230 10150
L3180 10150
L3110 10130
L3060 10080
L3040 10030
L3020 9940
L3020 9870
L3040 9770
L3060 9720
L3110 9680
L3180 9650
L3230 9650
L3300 9680
L3330 9700
" />
<path d="M3780 10150
L3540 10150
L3540 9650
" />
<path d="M3830 10200
L4210 10200
" />
<path d="M4330 10150
L4330 9650
L4490 10010
L4660 9650
L4660 10150
" />
</g>
<g style="fill:#840000; fill-opacity:0.0; 
stroke:#840000; stroke-width:60; stroke-opacity:1; 
stroke-linecap:round; stroke-linejoin:round;">
<path d="M1620 9800
L1720 9800
L1760 9780
L1790 9750
L1830 9680
L1860 9590
L1860 9400
L1830 9350
L1810 9330
L1760 9300
L1670 9300
L1620 9330
L1600 9350
L1570 9400
L1570 9520
L1600 9560
L1620 9590
L1670 9610
L1760 9610
L1810 9590
L1830 9560
L1860 9520
" />
</g>
<g style="fill:#840084; fill-opacity:0.0; 
stroke:#840084; stroke-width:60; stroke-opacity:1; 
stroke-linecap:round; stroke-linejoin:round;">
</g>
<g style="fill:#008484; fill-opacity:0.0; 
stroke:#008484; stroke-width:60; stroke-opacity:1; 
stroke-linecap:round; stroke-linejoin:round;">
<path d="M2610 1670
L2610 2080
L2630 2120
L2660 2150
L2700 2170
L2800 2170
L2850 2150
L2870 2120
L2890 2080
L2890 1670
" />
<path d="M3200 2120
L3230 2150
L3200 2170
L3180 2150
L3200 2120
L3200 2170
" />
<path d="M3110 1700
L3160 1670
L3270 1670
L3320 1700
L3350 1740
L3350 1790
L3320 1840
L3300 1860
L3250 1890
L3230 1910
L3200 1960
L3200 1980
" />
<path d="M3850 2120
L3820 2150
L3750 2170
L3700 2170
L3630 2150
L3580 2100
L3560 2050
L3540 1960
L3540 1890
L3560 1790
L3580 1740
L3630 1700
L3700 1670
L3750 1670
L3820 1700
L3850 1720
" />
<path d="M7700 2030
L7940 2030
" />
<path d="M7660 2170
L7820 1670
L7990 2170
" />
<path d="M8130 2150
L8200 2170
L8320 2170
L8370 2150
L8390 2120
L8420 2080
L8420 2030
L8390 1980
L8370 1960
L8320 1930
L8230 1910
L8180 1890
L8160 1860
L8130 1810
L8130 1770
L8160 1720
L8180 1700
L8230 1670
L8350 1670
L8420 1700
" />
<path d="M8580 1670
L8920 1670
L8700 2170
" />
<path d="M9080 1720
L9110 1700
L9160 1670
L9270 1670
L9320 1700
L9350 1720
L9370 1770
L9370 1810
L9350 1890
L9060 2170
L9370 2170
" />
<path d="M9800 1670
L9700 1670
L9660 1700
L9630 1720
L9580 1790
L9560 1890
L9560 2080
L9580 2120
L9610 2150
L9660 2170
L9750 2170
L9800 2150
L9820 2120
L9850 2080
L9850 1960
L9820 1910
L9800 1890
L9750 1860
L9660 1860
L9610 1890
L9580 1910
L9560 1960
" />
<path d="M10300 1670
L10060 1670
L10040 1910
L10060 1890
L10110 1860
L10230 1860
L10270 1890
L10300 1910
L10320 1960
L10320 2080
L10300 2120
L10270 2150
L10230 2170
L10110 2170
L10060 2150
L10040 2120
" />
<path d="M10490 2170
L10750 1840
" />
<path d="M10490 1840
L10750 2170
" />
</g>
<g style="fill:#840084; fill-opacity:0.0; 
stroke:#840084; stroke-width:60; stroke-opacity:1; 
stroke-linecap:round; stroke-linejoin:round;">
<path d="M-2760 21170
L-2760 20670
L-2570 20670
L-2520 20700
L-2500 20720
L-2480 20770
L-2480 20840
L-2500 20890
L-2520 20910
L-2570 20930
L-2760 20930
" />
<path d="M-2050 21170
L-2050 20910
L-2070 20860
L-2120 20840
L-2220 20840
L-2260 20860
" />
<path d="M-2050 21150
L-2100 21170
L-2220 21170
L-2260 21150
L-2290 21100
L-2290 21050
L-2260 21000
L-2220 20980
L-2100 20980
L-2050 20960
" />
<path d="M-1600 21150
L-1640 21170
L-1740 21170
L-1790 21150
L-1810 21120
L-1830 21080
L-1830 20930
L-1810 20890
L-1790 20860
L-1740 20840
L-1640 20840
L-1600 20860
" />
<path d="M-1380 21170
L-1380 20670
" />
<path d="M-1330 20980
L-1190 21170
" />
<path d="M-1190 20840
L-1380 21030
" />
<path d="M-760 21170
L-760 20910
L-790 20860
L-830 20840
L-930 20840
L-980 20860
" />
<path d="M-760 21150
L-810 21170
L-930 21170
L-980 21150
L-1000 21100
L-1000 21050
L-980 21000
L-930 20980
L-810 20980
L-760 20960
" />
<path d="M-310 20840
L-310 21240
L-330 21290
L-360 21310
L-410 21340
L-480 21340
L-520 21310
" />
<path d="M-310 21150
L-360 21170
L-450 21170
L-500 21150
L-520 21120
L-550 21080
L-550 20930
L-520 20890
L-500 20860
L-450 20840
L-360 20840
L-310 20860
" />
<path d="M110 21150
L60 21170
L-20 21170
L-70 21150
L-100 21100
L-100 20910
L-70 20860
L-20 20840
L60 20840
L110 20860
L130 20910
L130 20960
L-100 21000
" />
<path d="M230 21220
L610 21220
" />
<path d="M970 21170
L730 21170
L730 20670
" />
<path d="M1390 20700
L1350 20670
L1270 20670
L1200 20700
L1160 20740
L1130 20790
L1110 20890
L1110 20960
L1130 21050
L1160 21100
L1200 21150
L1270 21170
L1320 21170
L1390 21150
L1420 21120
L1420 20960
L1320 20960
" />
<path d="M1610 21030
L1850 21030
" />
<path d="M1560 21170
L1730 20670
L1890 21170
" />
<path d="M2060 21120
L2080 21150
L2060 21170
L2040 21150
L2060 21120
L2060 21170
" />
<path d="M2060 20860
L2080 20890
L2060 20910
L2040 20890
L2060 20860
L2060 20910
" />
<path d="M2270 21030
L2510 21030
" />
<path d="M2230 21170
L2390 20670
L2560 21170
" />
<path d="M2730 21170
L2730 20670
L2890 21030
L3060 20670
L3060 21170
" />
<path d="M3270 21150
L3350 21170
L3470 21170
L3510 21150
L3540 21120
L3560 21080
L3560 21030
L3540 20980
L3510 20960
L3470 20930
L3370 20910
L3320 20890
L3300 20860
L3270 20810
L3270 20770
L3300 20720
L3320 20700
L3370 20670
L3490 20670
L3560 20700
" />
<path d="M3660 21220
L4040 21220
" />
<path d="M4390 21170
L4160 21170
L4160 20670
" />
<path d="M4820 20700
L4770 20670
L4700 20670
L4630 20700
L4580 20740
L4560 20790
L4540 20890
L4540 20960
L4560 21050
L4580 21100
L4630 21150
L4700 21170
L4750 21170
L4820 21150
L4850 21120
L4850 20960
L4750 20960
" />
<path d="M5040 21030
L5270 21030
" />
<path d="M4990 21170
L5160 20670
L5320 21170
" />
<path d="M5490 20980
L5870 20980
" />
<path d="M6080 20720
L6110 20700
L6160 20670
L6270 20670
L6320 20700
L6350 20720
L6370 20770
L6370 20810
L6350 20890
L6060 21170
L6370 21170
" />
<path d="M6680 20670
L6730 20670
L6770 20700
L6800 20720
L6820 20770
L6850 20860
L6850 20980
L6820 21080
L6800 21120
L6770 21150
L6730 21170
L6680 21170
L6630 21150
L6610 21120
L6580 21080
L6560 20980
L6560 20860
L6580 20770
L6610 20720
L6630 20700
L6680 20670
" />
<path d="M6940 21220
L7320 21220
" />
<path d="M7660 20840
L7660 21170
" />
<path d="M7540 20650
L7420 21000
L7730 21000
" />
<path d="M7920 21120
L7940 21150
L7920 21170
L7890 21150
L7920 21120
L7920 21170
" />
<path d="M8110 20670
L8440 20670
L8230 21170
" />
<path d="M8580 21170
L8850 20840
" />
<path d="M8580 20840
L8850 21170
" />
<path d="M9250 20840
L9250 21170
" />
<path d="M9130 20650
L9010 21000
L9320 21000
" />
<path d="M9510 21120
L9540 21150
L9510 21170
L9490 21150
L9510 21120
L9510 21170
" />
<path d="M9990 20670
L9750 20670
L9730 20910
L9750 20890
L9800 20860
L9920 20860
L9970 20890
L9990 20910
L10010 20960
L10010 21080
L9990 21120
L9970 21150
L9920 21170
L9800 21170
L9750 21150
L9730 21120
" />
<path d="M10230 21170
L10230 20840
" />
<path d="M10230 20890
L10250 20860
L10300 20840
L10370 20840
L10420 20860
L10440 20910
L10440 21170
" />
<path d="M10440 20910
L10470 20860
L10510 20840
L10580 20840
L10630 20860
L10660 20910
L10660 21170
" />
<path d="M10890 21170
L10890 20840
" />
<path d="M10890 20890
L10920 20860
L10970 20840
L11040 20840
L11080 20860
L11110 20910
L11110 21170
" />
<path d="M11110 20910
L11130 20860
L11180 20840
L11250 20840
L11300 20860
L11320 20910
L11320 21170
" />
<path d="M11440 21220
L11820 21220
" />
<path d="M11940 21170
L11940 20670
L12130 20670
L12180 20700
L12200 20720
L12230 20770
L12230 20840
L12200 20890
L12180 20910
L12130 20930
L11940 20930
" />
<path d="M12540 20670
L12580 20670
L12630 20700
L12660 20720
L12680 20770
L12700 20860
L12700 20980
L12680 21080
L12660 21120
L12630 21150
L12580 21170
L12540 21170
L12490 21150
L12470 21120
L12440 21080
L12420 20980
L12420 20860
L12440 20770
L12470 20720
L12490 20700
L12540 20670
" />
<path d="M12920 21120
L12940 21150
L12920 21170
L12890 21150
L12920 21120
L12920 21170
" />
<path d="M13370 20670
L13270 20670
L13230 20700
L13200 20720
L13160 20790
L13130 20890
L13130 21080
L13160 21120
L13180 21150
L13230 21170
L13320 21170
L13370 21150
L13390 21120
L13420 21080
L13420 20960
L13390 20910
L13370 20890
L13320 20860
L13230 20860
L13180 20890
L13160 20910
L13130 20960
" />
<path d="M13870 20670
L13630 20670
L13610 20910
L13630 20890
L13680 20860
L13800 20860
L13850 20890
L13870 20910
L13890 20960
L13890 21080
L13870 21120
L13850 21150
L13800 21170
L13680 21170
L13630 21150
L13610 21120
" />
<path d="M14110 21170
L14110 20840
" />
<path d="M14110 20890
L14130 20860
L14180 20840
L14250 20840
L14300 20860
L14320 20910
L14320 21170
" />
<path d="M14320 20910
L14350 20860
L14390 20840
L14470 20840
L14510 20860
L14540 20910
L14540 21170
" />
<path d="M14770 21170
L14770 20840
" />
<path d="M14770 20890
L14800 20860
L14850 20840
L14920 20840
L14970 20860
L14990 20910
L14990 21170
" />
<path d="M14990 20910
L15010 20860
L15060 20840
L15130 20840
L15180 20860
L15200 20910
L15200 21170
" />
</g> 
</svg>
